<svg width="540" height="481" viewBox="0 0 540 481" xmlns="http://www.w3.org/2000/svg">

  <g fill="none" fill-rule="evenodd">
    <rect fill="#A82C2C" y="109" width="540" height="372" rx="20"/>
    <rect fill="#FDFDFD" x="37" width="466" height="400" rx="10"/>
    <rect fill="#FF7C7C" x="37" width="466" height="33.913" rx="10"/>
    <path d="M92.5 80.5h356.114M92.5 106.5h356.114M92.5 132.5h356.114M92.5 54.5h356.114M92.5 158.5h356.114M92.5 184.5h356.114" stroke="#979797" stroke-width="5" stroke-linecap="square" opacity=".451"/>
    <path d="M253.53 306.346l32.94-22.692 237.06-163.308C532.625 114.08 540 117.954 540 129v332c0 11.046-8.95 20-20 20H20c-11.045 0-12.62-5.084-3.53-11.346l237.06-163.308z" fill="#FF6262"/>
    <path d="M0 129c0-11.046 7.38-14.916 16.47-8.654l237.06 163.308 32.94 22.692 237.06 163.308C532.625 475.92 531.05 481 520 481H20c-11.045 0-20-8.954-20-20V129z" fill="#DE3B3B"/>
  </g>
</svg>
