<svg width="540" height="481" viewBox="0 0 540 481" xmlns="http://www.w3.org/2000/svg">
  <title>
    Facebook
  </title>
  <g fill="none" fill-rule="evenodd">
    <rect stroke="#39A5E0" stroke-width="25" fill="#0C6291" width="540" height="481" rx="20"/>
    <path d="M227.03 394.895V229.27h-30.468v-45.704h30.47V161.69c0-24.348 7.29-43.032 21.874-56.053 14.584-13.02 35.22-19.532 61.914-19.532 4.948 0 10.026.36 15.235 1.075 5.208.716 11.002 1.725 17.382 3.027l-4.882 48.633c-3.516-.65-6.673-1.14-9.473-1.465-2.8-.326-6.217-.488-10.254-.488-8.203 0-14.518 2.148-18.945 6.445-4.427 4.297-6.64 10.417-6.64 18.36v21.874h41.015v45.704h-41.016v165.625h-66.21z" fill="#39A5DF"/>
  </g>
</svg>
