<?xml version="1.0" encoding="UTF-8" standalone="no"?>
<svg width="2880px" height="1800px" viewBox="0 0 2880 1800" version="1.1" xmlns="http://www.w3.org/2000/svg" xmlns:xlink="http://www.w3.org/1999/xlink" xmlns:sketch="http://www.bohemiancoding.com/sketch/ns">
    <!-- Generator: Sketch 3.3.2 (12043) - http://www.bohemiancoding.com/sketch -->
    <title>Rely</title>
    <desc>Created with Sketch.</desc>
    <defs>
        <radialGradient cx="50.8355021%" cy="50%" fx="50.8355021%" fy="50%" r="100%" id="radialGradient-1">
            <stop stop-color="#FFFFFF" offset="0%"></stop>
            <stop stop-color="#E2E2E2" offset="100%"></stop>
        </radialGradient>
        <rect id="path-2" x="0" y="0" width="2880" height="1800"></rect>
        <path id="path-4" d="M196.507813,44 L0.4921875,44 L53.9609375,0 L143.039062,0 L196.507813,44 Z"></path>
        <linearGradient x1="50%" y1="0%" x2="50%" y2="126.960123%" id="linearGradient-6">
            <stop stop-color="#FFFFFF" stop-opacity="0" offset="0%"></stop>
            <stop stop-color="#000000" offset="100%"></stop>
        </linearGradient>
        <rect id="path-7" x="0" y="0" width="959" height="520"></rect>
    </defs>
    <g id="Page-1" stroke="none" stroke-width="1" fill="none" fill-rule="evenodd" sketch:type="MSPage">
        <g id="Rely" sketch:type="MSLayerGroup">
            <mask id="mask-3" sketch:name="Mask Copy" fill="white">
                <use xlink:href="#path-2"></use>
            </mask>
            <use id="Mask-Copy" fill="url(#radialGradient-1)" sketch:type="MSShapeGroup" xlink:href="#path-2"></use>
            <g id="brain-copy" transform="translate(235.000000, 609.000000)" fill="#FFA5A5" sketch:type="MSShapeGroup">
                <path d="M0.646764042,149.059101 C0.646764042,120.021613 54.9749436,1.83398894e-14 262.586201,0 C470.197459,0 517.411234,158.092986 517.411234,220.039626 C517.411234,281.986265 469.550695,351.676234 433.331908,351.676234 C397.113122,351.676234 389.351953,309.08792 325.969077,309.08792 C262.586201,309.08792 267.113549,338.770685 173.979527,338.770685 C80.8455053,338.770685 147.462202,249.72239 147.462202,249.72239 C147.462202,249.72239 0.646764042,287.148485 0.646764042,149.059101 Z M235.422111,346.514014 C241.889752,340.706517 280.04883,331.027355 286.516471,325.219857 C293.630875,335.866936 300.74528,360.710119 313.033796,365.872339 C325.322313,371.034559 303.332336,412.977596 316.267617,427.173701 C329.202898,441.369806 342.138178,428.464256 349.899347,440.079251 C357.660515,451.694246 358.307279,482.022288 344.07847,482.022288 C329.849662,482.022288 319.501437,476.860068 316.267617,460.082853 C313.033796,443.305639 305.919392,431.045366 289.750291,425.237869 C273.58119,419.430371 296.217931,400.072046 285.222943,393.619272 C274.227954,387.166497 238.655932,390.392884 235.422111,346.514014 Z M300.74528,327.15569 C300.74528,327.15569 378.356965,327.800967 397.113122,344.900821 C415.869279,362.000674 422.983684,365.227062 454.028358,365.227062 C446.913953,385.230664 437.859257,439.433974 371.889324,418.139816 C366.715212,427.818979 328.556133,437.498141 325.322313,411.687041 C322.088493,385.875942 341.491414,371.034559 300.74528,327.15569 Z" id="Path-2"></path>
            </g>
            <g id="iMac-+-Bulb" transform="translate(1674.500000, 558.194444)">
                <g id="iMac">
                    <path d="M577.507813,684.664062 L381.492188,684.664062 L434.960938,563 L524.039062,563 L577.507813,684.664062 Z" id="Rectangle-4" fill="#D8D8D8" sketch:type="MSShapeGroup"></path>
                    <g id="Rectangle-4-Copy-+-Rectangle-4-Copy-2" transform="translate(381.000000, 563.000000)">
                        <mask id="mask-5" sketch:name="Mask" fill="white">
                            <use xlink:href="#path-4"></use>
                        </mask>
                        <use id="Mask" opacity="0" fill="#D8D8D8" sketch:type="MSShapeGroup" xlink:href="#path-4"></use>
                        <path d="M196.507813,121.664062 L0.4921875,121.664062 L53.9609375,0 L143.039062,0 L196.507813,121.664062 Z" id="Rectangle-4-Copy-2" fill="url(#linearGradient-6)" sketch:type="MSShapeGroup" mask="url(#mask-5)"></path>
                    </g>
                    <rect id="Rectangle-2" fill="#D7D7D7" sketch:type="MSShapeGroup" x="0" y="0" width="959" height="598"></rect>
                    <mask id="mask-8" sketch:name="Mask" fill="white">
                        <use xlink:href="#path-7"></use>
                    </mask>
                    <use id="Mask" fill="#323232" sketch:type="MSShapeGroup" xlink:href="#path-7"></use>
                    <g id="I" mask="url(#mask-8)" sketch:type="MSShapeGroup">
                        <g transform="translate(370.000000, 86.000000)">
                            <path d="M109.5,0.143209877 C109.5,0.143209877 218.856675,6.44444444 218.856675,108.839506 C218.856675,166.123457 160.810209,194.908642 160.810209,275.106173 C160.810209,282.123457 150.633178,281.120988 150.634162,289.42716 C150.637657,318.928395 143.611257,347.85679 109.356675,347.85679 C109.356675,319.930864 109.5,2.72098765 109.5,2.72098765 L109.5,0.143209877 Z" id="Path-1" stroke="none" fill="#EFD400" fill-rule="evenodd"></path>
                            <path d="M0.286649215,0.143209877 C0.286649215,0.143209877 109.643325,6.44444444 109.643325,108.839506 C109.643325,166.123457 51.5968586,194.908642 51.5968586,275.106173 C51.5968586,282.123457 41.4198276,281.120988 41.4208115,289.42716 C41.4243063,318.928395 34.3979058,347.85679 0.143324607,347.85679 C0.143324607,319.930864 0.286649215,2.72098765 0.286649215,2.72098765 L0.286649215,0.143209877 Z" id="Path-1-Copy" stroke="none" fill="#F3F04A" fill-rule="evenodd" transform="translate(54.893325, 174.000000) scale(-1, 1) translate(-54.893325, -174.000000) "></path>
                            <path d="M121.539267,109.412346 C126.130315,109.412346 129.852094,105.693545 129.852094,101.106173 C129.852094,96.5188003 126.130315,92.8 121.539267,92.8 C116.948219,92.8 113.22644,96.5188003 113.22644,101.106173 C113.22644,105.693545 116.948219,109.412346 121.539267,109.412346 Z M120.39267,109.555556 L120.39267,284.272549 L122.685864,284.272549 L122.685864,109.555556 L120.39267,109.555556 Z" id="Oval-1" stroke="#979797" stroke-width="8" fill="none"></path>
                            <path d="M96.6719651,109.412346 C101.263013,109.412346 104.984792,105.693545 104.984792,101.106173 C104.984792,96.5188003 101.263013,92.8 96.6719651,92.8 C92.0809174,92.8 88.3591378,96.5188003 88.3591378,101.106173 C88.3591378,105.693545 92.0809174,109.412346 96.6719651,109.412346 Z M95.5253682,109.555556 L95.5253682,284.272549 L97.8185619,284.272549 L97.8185619,109.555556 L95.5253682,109.555556 Z" id="Oval-1-Copy" stroke="#FBFBFB" stroke-width="8" fill="none"></path>
                            <path d="M67.0749511,284.844444 L109.929974,284.844444 C109.929974,284.844444 109.929975,347.85679 81.2640872,347.85679 L67.0749511,347.85679 L67.0749511,284.844444 Z" id="Path-3" stroke="none" fill="#434343" fill-rule="evenodd" transform="translate(88.502462, 316.350617) scale(-1, 1) translate(-88.502462, -316.350617) "></path>
                            <path d="M109.785903,284.844444 L152.211698,284.844444 C152.211698,284.844444 152.2117,347.85679 123.545812,347.85679 L109.785903,347.85679 L109.785903,284.844444 Z" id="Path-3-Copy" stroke="none" fill="#2D2929" fill-rule="evenodd"></path>
                        </g>
                    </g>
                </g>
            </g>
            <path d="M763,611.694444 C763,611.694444 1160.06335,218.194444 1536.53167,611.694444" id="Path-12" stroke="#2D2D2D" stroke-width="14" sketch:type="MSShapeGroup"></path>
            <path d="M1536.53167,611.694444 L1520.03167,512.194444" id="Path-13" stroke="#2D2D2D" stroke-width="14" sketch:type="MSShapeGroup"></path>
            <path d="M1543.5,611.944444 L1440.5,626.194444" id="Path-14" stroke="#2D2D2D" stroke-width="14" sketch:type="MSShapeGroup"></path>
            <text id="Reliability" sketch:type="MSTextLayer" font-family="Roboto" font-size="200" font-style="italic" font-weight="260" fill="#010101">
                <tspan x="762.5" y="954.194444">Reliability</tspan>
            </text>
        </g>
    </g>
</svg>