<?xml version="1.0" encoding="UTF-8" standalone="no"?>
<svg width="258px" height="258px" viewBox="0 0 258 258" version="1.1" xmlns="http://www.w3.org/2000/svg" xmlns:xlink="http://www.w3.org/1999/xlink" xmlns:sketch="http://www.bohemiancoding.com/sketch/ns">
    <!-- Generator: Sketch 3.3.2 (12043) - http://www.bohemiancoding.com/sketch -->
    <title>Zoom</title>
    <desc>Created with Sketch.</desc>
    <defs></defs>
    <g id="Page-1" stroke="none" stroke-width="1" fill="none" fill-rule="evenodd" sketch:type="MSPage">
        <g id="Zoom" sketch:type="MSLayerGroup">
            <g id="Page-1" sketch:type="MSShapeGroup">
                <g id="Group">
                    <path d="M129,258 C200.244733,258 258,200.244733 258,129 C258,57.7552673 200.244733,0 129,0 C57.7552673,0 0,57.7552673 0,129 C0,200.244733 57.7552673,258 129,258 L129,258 Z" id="Oval-1" fill="#FF4949"></path>
                    <path d="M105.5,158 C135.047234,158 159,134.047234 159,104.5 C159,74.9527659 135.047234,51 105.5,51 C75.9527659,51 52,74.9527659 52,104.5 C52,134.047234 75.9527659,158 105.5,158 L105.5,158 Z" id="Oval-1-Copy" stroke="#FFFFFF" stroke-width="10"></path>
                    <path d="M146,146.5 L205.602852,206.102852" id="Line" stroke="#FFFFFF" stroke-width="10"></path>
                    <path d="M105.5,82.5771698 L105.5,128.291161" id="Line-Copy" stroke="#FFFFFF" stroke-width="10"></path>
                    <path d="M128.42283,105.5 L82.7088385,105.5" id="Line-Copy-2" stroke="#FFFFFF" stroke-width="10"></path>
                </g>
            </g>
        </g>
    </g>
</svg>